<?xml version="1.0" encoding="UTF-8" standalone="no"?>
<!DOCTYPE svg PUBLIC "-//W3C//DTD SVG 1.1//EN"
 "http://www.w3.org/Graphics/SVG/1.1/DTD/svg11.dtd">
<!-- Generated by graphviz version 14.1.1 (20251213.1925)
 -->
<!-- Title: InheritanceTree Pages: 1 -->
<svg width="444pt" height="321pt"
 viewBox="0.00 0.00 444.00 321.00" xmlns="http://www.w3.org/2000/svg" xmlns:xlink="http://www.w3.org/1999/xlink">
<g id="graph0" class="graph" transform="scale(1 1) rotate(0) translate(4 316.5)">
<title>InheritanceTree</title>
<polygon fill="white" stroke="none" points="-4,4 -4,-316.5 440.25,-316.5 440.25,4 -4,4"/>
<text xml:space="preserve" text-anchor="middle" x="218.12" y="-7.2" font-family="Times New Roman,serif" font-size="14.00">simple_i18n &#45; Inheritance Hierarchy</text>
<!-- SIMPLE_I18N -->
<g id="node1" class="node">
<title>SIMPLE_I18N</title>
<path fill="none" stroke="black" d="M94.75,-60.5C94.75,-60.5 19.5,-60.5 19.5,-60.5 13.5,-60.5 7.5,-54.5 7.5,-48.5 7.5,-48.5 7.5,-36.5 7.5,-36.5 7.5,-30.5 13.5,-24.5 19.5,-24.5 19.5,-24.5 94.75,-24.5 94.75,-24.5 100.75,-24.5 106.75,-30.5 106.75,-36.5 106.75,-36.5 106.75,-48.5 106.75,-48.5 106.75,-54.5 100.75,-60.5 94.75,-60.5"/>
<text xml:space="preserve" text-anchor="middle" x="57.12" y="-37.45" font-family="Times New Roman,serif" font-size="14.00">SIMPLE_I18N</text>
</g>
<!-- SHARED_I18N_PLURAL_TOOLS -->
<g id="node2" class="node">
<title>SHARED_I18N_PLURAL_TOOLS</title>
<path fill="none" stroke="black" d="M424.25,-132.5C424.25,-132.5 234.25,-132.5 234.25,-132.5 228.25,-132.5 222.25,-126.5 222.25,-120.5 222.25,-120.5 222.25,-108.5 222.25,-108.5 222.25,-102.5 228.25,-96.5 234.25,-96.5 234.25,-96.5 424.25,-96.5 424.25,-96.5 430.25,-96.5 436.25,-102.5 436.25,-108.5 436.25,-108.5 436.25,-120.5 436.25,-120.5 436.25,-126.5 430.25,-132.5 424.25,-132.5"/>
<text xml:space="preserve" text-anchor="middle" x="329.25" y="-109.45" font-family="Times New Roman,serif" font-size="14.00">SHARED_I18N_PLURAL_TOOLS</text>
</g>
<!-- SIMPLE_I18N&#45;&gt;SHARED_I18N_PLURAL_TOOLS -->
<g id="edge1" class="edge">
<title>SIMPLE_I18N&#45;&gt;SHARED_I18N_PLURAL_TOOLS</title>
<path fill="none" stroke="black" d="M103.25,-60.67C103.25,-82 103.25,-114.5 103.25,-114.5 103.25,-114.5 210.36,-114.5 210.36,-114.5"/>
<polygon fill="none" stroke="black" points="210.36,-118 220.36,-114.5 210.36,-111 210.36,-118"/>
</g>
<!-- NONE -->
<g id="node3" class="node">
<title>NONE</title>
<path fill="none" stroke="black" d="M344.25,-60.5C344.25,-60.5 314.25,-60.5 314.25,-60.5 308.25,-60.5 302.25,-54.5 302.25,-48.5 302.25,-48.5 302.25,-36.5 302.25,-36.5 302.25,-30.5 308.25,-24.5 314.25,-24.5 314.25,-24.5 344.25,-24.5 344.25,-24.5 350.25,-24.5 356.25,-30.5 356.25,-36.5 356.25,-36.5 356.25,-48.5 356.25,-48.5 356.25,-54.5 350.25,-60.5 344.25,-60.5"/>
<text xml:space="preserve" text-anchor="middle" x="329.25" y="-37.45" font-family="Times New Roman,serif" font-size="14.00">NONE</text>
</g>
<!-- SIMPLE_I18N&#45;&gt;NONE -->
<g id="edge2" class="edge">
<title>SIMPLE_I18N&#45;&gt;NONE</title>
<path fill="none" stroke="black" d="M107.04,-42.5C107.04,-42.5 290.52,-42.5 290.52,-42.5"/>
<polygon fill="none" stroke="black" points="290.52,-46 300.52,-42.5 290.52,-39 290.52,-46"/>
</g>
<!-- I18N_TEST_APP -->
<g id="node4" class="node">
<title>I18N_TEST_APP</title>
<path fill="none" stroke="black" d="M102.25,-240.5C102.25,-240.5 12,-240.5 12,-240.5 6,-240.5 0,-234.5 0,-228.5 0,-228.5 0,-216.5 0,-216.5 0,-210.5 6,-204.5 12,-204.5 12,-204.5 102.25,-204.5 102.25,-204.5 108.25,-204.5 114.25,-210.5 114.25,-216.5 114.25,-216.5 114.25,-228.5 114.25,-228.5 114.25,-234.5 108.25,-240.5 102.25,-240.5"/>
<text xml:space="preserve" text-anchor="middle" x="57.12" y="-217.45" font-family="Times New Roman,serif" font-size="14.00">I18N_TEST_APP</text>
</g>
<!-- TEST_SET_BASE -->
<g id="node5" class="node">
<title>TEST_SET_BASE</title>
<path fill="none" stroke="black" d="M377.38,-204.5C377.38,-204.5 281.12,-204.5 281.12,-204.5 275.12,-204.5 269.12,-198.5 269.12,-192.5 269.12,-192.5 269.12,-180.5 269.12,-180.5 269.12,-174.5 275.12,-168.5 281.12,-168.5 281.12,-168.5 377.38,-168.5 377.38,-168.5 383.38,-168.5 389.38,-174.5 389.38,-180.5 389.38,-180.5 389.38,-192.5 389.38,-192.5 389.38,-198.5 383.38,-204.5 377.38,-204.5"/>
<text xml:space="preserve" text-anchor="middle" x="329.25" y="-181.45" font-family="Times New Roman,serif" font-size="14.00">TEST_SET_BASE</text>
</g>
<!-- I18N_TEST_APP&#45;&gt;TEST_SET_BASE -->
<g id="edge3" class="edge">
<title>I18N_TEST_APP&#45;&gt;TEST_SET_BASE</title>
<path fill="none" stroke="black" d="M110.25,-204.01C110.25,-197.84 110.25,-192.5 110.25,-192.5 110.25,-192.5 257.31,-192.5 257.31,-192.5"/>
<polygon fill="none" stroke="black" points="257.31,-196 267.31,-192.5 257.31,-189 257.31,-196"/>
</g>
<!-- LIB_TESTS -->
<g id="node6" class="node">
<title>LIB_TESTS</title>
<path fill="none" stroke="black" d="M87.25,-168.5C87.25,-168.5 27,-168.5 27,-168.5 21,-168.5 15,-162.5 15,-156.5 15,-156.5 15,-144.5 15,-144.5 15,-138.5 21,-132.5 27,-132.5 27,-132.5 87.25,-132.5 87.25,-132.5 93.25,-132.5 99.25,-138.5 99.25,-144.5 99.25,-144.5 99.25,-156.5 99.25,-156.5 99.25,-162.5 93.25,-168.5 87.25,-168.5"/>
<text xml:space="preserve" text-anchor="middle" x="57.12" y="-145.45" font-family="Times New Roman,serif" font-size="14.00">LIB_TESTS</text>
</g>
<!-- LIB_TESTS&#45;&gt;TEST_SET_BASE -->
<g id="edge4" class="edge">
<title>LIB_TESTS&#45;&gt;TEST_SET_BASE</title>
<path fill="none" stroke="black" d="M57.25,-168.99C57.25,-175.16 57.25,-180.5 57.25,-180.5 57.25,-180.5 257.37,-180.5 257.37,-180.5"/>
<polygon fill="none" stroke="black" points="257.37,-184 267.37,-180.5 257.37,-177 257.37,-184"/>
</g>
<!-- TEST_APP -->
<g id="node7" class="node">
<title>TEST_APP</title>
<path fill="none" stroke="black" d="M85,-312.5C85,-312.5 29.25,-312.5 29.25,-312.5 23.25,-312.5 17.25,-306.5 17.25,-300.5 17.25,-300.5 17.25,-288.5 17.25,-288.5 17.25,-282.5 23.25,-276.5 29.25,-276.5 29.25,-276.5 85,-276.5 85,-276.5 91,-276.5 97,-282.5 97,-288.5 97,-288.5 97,-300.5 97,-300.5 97,-306.5 91,-312.5 85,-312.5"/>
<text xml:space="preserve" text-anchor="middle" x="57.12" y="-289.45" font-family="Times New Roman,serif" font-size="14.00">TEST_APP</text>
</g>
</g>
</svg>
