<?xml version="1.0" encoding="UTF-8" standalone="no"?>
<!DOCTYPE svg PUBLIC "-//W3C//DTD SVG 1.1//EN"
 "http://www.w3.org/Graphics/SVG/1.1/DTD/svg11.dtd">
<!-- Generated by graphviz version 14.1.1 (20251213.1925)
 -->
<!-- Title: ContractCoverage Pages: 1 -->
<svg width="816pt" height="745pt"
 viewBox="48.00 48.00 768.00 697.00" xmlns="http://www.w3.org/2000/svg" xmlns:xlink="http://www.w3.org/1999/xlink">
<g id="graph0" class="graph" transform="scale(1.00699 1.00699) rotate(0) translate(51.67 688.42)">
<title>ContractCoverage</title>
<polygon fill="white" stroke="none" points="-4,4 -4,-640.75 711,-640.75 711,4 -4,4"/>
<text xml:space="preserve" text-anchor="middle" x="353.5" y="-623.25" font-family="Times New Roman,serif" font-size="10.00">simple_i18n &#45; Contract Coverage</text>
<g id="clust1" class="cluster">
<title>cluster_SIMPLE_I18N</title>
<polygon fill="white" stroke="black" points="25.56,-441.5 25.56,-502 108.56,-502 108.56,-441.5 25.56,-441.5"/>
<text xml:space="preserve" text-anchor="middle" x="67.06" y="-484.7" font-family="Times New Roman,serif" font-size="14.00">SIMPLE_I18N</text>
</g>
<g id="clust2" class="cluster">
<title>cluster_I18N_TEST_APP</title>
<polygon fill="white" stroke="black" points="389.12,0 389.12,-305.5 707,-305.5 707,0 389.12,0"/>
<text xml:space="preserve" text-anchor="middle" x="548.06" y="-288.2" font-family="Times New Roman,serif" font-size="14.00">I18N_TEST_APP</text>
</g>
<g id="clust3" class="cluster">
<title>cluster_LIB_TESTS</title>
<polygon fill="white" stroke="black" points="0,-51.5 0,-376 330.12,-376 330.12,-51.5 0,-51.5"/>
<text xml:space="preserve" text-anchor="middle" x="165.06" y="-358.7" font-family="Times New Roman,serif" font-size="14.00">LIB_TESTS</text>
</g>
<g id="clust4" class="cluster">
<title>cluster_TEST_APP</title>
<polygon fill="white" stroke="black" points="156.06,-442 156.06,-617.5 330.06,-617.5 330.06,-442 156.06,-442"/>
<text xml:space="preserve" text-anchor="middle" x="243.06" y="-600.2" font-family="Times New Roman,serif" font-size="14.00">TEST_APP</text>
</g>
<g id="clust5" class="cluster">
<title>cluster_legend</title>
<polygon fill="lightyellow" stroke="black" points="389.69,-363.62 389.69,-551.88 602.44,-551.88 602.44,-363.62 389.69,-363.62"/>
<text xml:space="preserve" text-anchor="middle" x="496.06" y="-538.38" font-family="Times New Roman,serif" font-size="10.00">Legend</text>
</g>
<!-- I18N_TEST_APP_make -->
<g id="node1" class="node">
<title>I18N_TEST_APP_make</title>
<polygon fill="lightcoral" stroke="black" points="450.87,-281 396.87,-281 396.87,-245 450.87,-245 450.87,-281"/>
<text xml:space="preserve" text-anchor="middle" x="423.87" y="-259.12" font-family="Times New Roman,serif" font-size="10.00">make</text>
</g>
<!-- I18N_TEST_APP_test_create_with_system_locale -->
<g id="node2" class="node">
<title>I18N_TEST_APP_test_create_with_system_locale</title>
<polygon fill="lightcoral" stroke="black" points="578.12,-148 431.62,-148 431.62,-112 578.12,-112 578.12,-148"/>
<text xml:space="preserve" text-anchor="middle" x="504.87" y="-126.12" font-family="Times New Roman,serif" font-size="10.00">test_create_with_system_locale</text>
</g>
<!-- I18N_TEST_APP_test_create_with_specific_locale -->
<g id="node3" class="node">
<title>I18N_TEST_APP_test_create_with_specific_locale</title>
<polygon fill="lightcoral" stroke="black" points="694,-204 543.75,-204 543.75,-168 694,-168 694,-204"/>
<text xml:space="preserve" text-anchor="middle" x="618.88" y="-182.12" font-family="Times New Roman,serif" font-size="10.00">test_create_with_specific_locale</text>
</g>
<!-- I18N_TEST_APP_test_register_translation -->
<g id="node4" class="node">
<title>I18N_TEST_APP_test_register_translation</title>
<polygon fill="lightcoral" stroke="black" points="707,-148 592.75,-148 592.75,-112 707,-112 707,-148"/>
<text xml:space="preserve" text-anchor="middle" x="649.88" y="-126.12" font-family="Times New Roman,serif" font-size="10.00">test_register_translation</text>
</g>
<!-- I18N_TEST_APP_test_translate -->
<g id="node5" class="node">
<title>I18N_TEST_APP_test_translate</title>
<polygon fill="lightcoral" stroke="black" points="676.88,-36 606.88,-36 606.88,0 676.88,0 676.88,-36"/>
<text xml:space="preserve" text-anchor="middle" x="641.88" y="-14.12" font-family="Times New Roman,serif" font-size="10.00">test_translate</text>
</g>
<!-- I18N_TEST_APP_test_translate_missing -->
<g id="node6" class="node">
<title>I18N_TEST_APP_test_translate_missing</title>
<polygon fill="lightcoral" stroke="black" points="573.25,-260 466.5,-260 466.5,-224 573.25,-224 573.25,-260"/>
<text xml:space="preserve" text-anchor="middle" x="519.88" y="-238.12" font-family="Times New Roman,serif" font-size="10.00">test_translate_missing</text>
</g>
<!-- I18N_TEST_APP_test_plural_translation -->
<g id="node7" class="node">
<title>I18N_TEST_APP_test_plural_translation</title>
<polygon fill="lightcoral" stroke="black" points="526,-204 417.75,-204 417.75,-168 526,-168 526,-204"/>
<text xml:space="preserve" text-anchor="middle" x="471.88" y="-182.12" font-family="Times New Roman,serif" font-size="10.00">test_plural_translation</text>
</g>
<!-- I18N_TEST_APP_test_format_placeholders -->
<g id="node8" class="node">
<title>I18N_TEST_APP_test_format_placeholders</title>
<polygon fill="lightcoral" stroke="black" points="627.25,-92 508.5,-92 508.5,-56 627.25,-56 627.25,-92"/>
<text xml:space="preserve" text-anchor="middle" x="567.87" y="-70.12" font-family="Times New Roman,serif" font-size="10.00">test_format_placeholders</text>
</g>
<!-- I18N_TEST_APP_test_translate_format -->
<g id="node9" class="node">
<title>I18N_TEST_APP_test_translate_format</title>
<polygon fill="lightcoral" stroke="black" points="490.62,-92 389.12,-92 389.12,-56 490.62,-56 490.62,-92"/>
<text xml:space="preserve" text-anchor="middle" x="439.88" y="-70.12" font-family="Times New Roman,serif" font-size="10.00">test_translate_format</text>
</g>
<!-- I18N_TEST_APP_test_register_multiple -->
<g id="node10" class="node">
<title>I18N_TEST_APP_test_register_multiple</title>
<polygon fill="lightcoral" stroke="black" points="704.5,-260 599.25,-260 599.25,-224 704.5,-224 704.5,-260"/>
<text xml:space="preserve" text-anchor="middle" x="651.87" y="-238.12" font-family="Times New Roman,serif" font-size="10.00">test_register_multiple</text>
</g>
<!-- I18N_TEST_APP_test_locale_info -->
<g id="node11" class="node">
<title>I18N_TEST_APP_test_locale_info</title>
<polygon fill="lightcoral" stroke="black" points="590.87,-36 508.87,-36 508.87,0 590.87,0 590.87,-36"/>
<text xml:space="preserve" text-anchor="middle" x="549.87" y="-14.12" font-family="Times New Roman,serif" font-size="10.00">test_locale_info</text>
</g>
<!-- LIB_TESTS_test_create_with_system_locale -->
<g id="node12" class="node">
<title>LIB_TESTS_test_create_with_system_locale</title>
<polygon fill="lightcoral" stroke="black" points="306.25,-255.5 159.75,-255.5 159.75,-219.5 306.25,-219.5 306.25,-255.5"/>
<text xml:space="preserve" text-anchor="middle" x="233" y="-233.62" font-family="Times New Roman,serif" font-size="10.00">test_create_with_system_locale</text>
</g>
<!-- LIB_TESTS_test_create_with_specific_locale -->
<g id="node13" class="node">
<title>LIB_TESTS_test_create_with_specific_locale</title>
<polygon fill="lightcoral" stroke="black" points="198.13,-199.5 47.88,-199.5 47.88,-163.5 198.13,-163.5 198.13,-199.5"/>
<text xml:space="preserve" text-anchor="middle" x="123" y="-177.62" font-family="Times New Roman,serif" font-size="10.00">test_create_with_specific_locale</text>
</g>
<!-- LIB_TESTS_test_register_translation -->
<g id="node14" class="node">
<title>LIB_TESTS_test_register_translation</title>
<polygon fill="lightcoral" stroke="black" points="330.12,-199.5 215.87,-199.5 215.87,-163.5 330.12,-163.5 330.12,-199.5"/>
<text xml:space="preserve" text-anchor="middle" x="273" y="-177.62" font-family="Times New Roman,serif" font-size="10.00">test_register_translation</text>
</g>
<!-- LIB_TESTS_test_translate -->
<g id="node15" class="node">
<title>LIB_TESTS_test_translate</title>
<polygon fill="lightcoral" stroke="black" points="70,-351.5 0,-351.5 0,-315.5 70,-315.5 70,-351.5"/>
<text xml:space="preserve" text-anchor="middle" x="35" y="-329.62" font-family="Times New Roman,serif" font-size="10.00">test_translate</text>
</g>
<!-- LIB_TESTS_test_translate_missing -->
<g id="node16" class="node">
<title>LIB_TESTS_test_translate_missing</title>
<polygon fill="lightcoral" stroke="black" points="194.38,-311.5 87.63,-311.5 87.63,-275.5 194.38,-275.5 194.38,-311.5"/>
<text xml:space="preserve" text-anchor="middle" x="141" y="-289.62" font-family="Times New Roman,serif" font-size="10.00">test_translate_missing</text>
</g>
<!-- LIB_TESTS_test_plural_translation -->
<g id="node17" class="node">
<title>LIB_TESTS_test_plural_translation</title>
<polygon fill="lightcoral" stroke="black" points="324.12,-311.5 215.88,-311.5 215.88,-275.5 324.12,-275.5 324.12,-311.5"/>
<text xml:space="preserve" text-anchor="middle" x="270" y="-289.62" font-family="Times New Roman,serif" font-size="10.00">test_plural_translation</text>
</g>
<!-- LIB_TESTS_test_format_placeholders -->
<g id="node18" class="node">
<title>LIB_TESTS_test_format_placeholders</title>
<polygon fill="lightcoral" stroke="black" points="246.38,-143.5 127.63,-143.5 127.63,-107.5 246.38,-107.5 246.38,-143.5"/>
<text xml:space="preserve" text-anchor="middle" x="187" y="-121.62" font-family="Times New Roman,serif" font-size="10.00">test_format_placeholders</text>
</g>
<!-- LIB_TESTS_test_translate_format -->
<g id="node19" class="node">
<title>LIB_TESTS_test_translate_format</title>
<polygon fill="lightcoral" stroke="black" points="108.75,-143.5 7.25,-143.5 7.25,-107.5 108.75,-107.5 108.75,-143.5"/>
<text xml:space="preserve" text-anchor="middle" x="58" y="-121.62" font-family="Times New Roman,serif" font-size="10.00">test_translate_format</text>
</g>
<!-- LIB_TESTS_test_register_multiple -->
<g id="node20" class="node">
<title>LIB_TESTS_test_register_multiple</title>
<polygon fill="lightcoral" stroke="black" points="136.63,-255.5 31.38,-255.5 31.38,-219.5 136.63,-219.5 136.63,-255.5"/>
<text xml:space="preserve" text-anchor="middle" x="84" y="-233.62" font-family="Times New Roman,serif" font-size="10.00">test_register_multiple</text>
</g>
<!-- LIB_TESTS_test_locale_info -->
<g id="node21" class="node">
<title>LIB_TESTS_test_locale_info</title>
<polygon fill="lightcoral" stroke="black" points="210,-87.5 128,-87.5 128,-51.5 210,-51.5 210,-87.5"/>
<text xml:space="preserve" text-anchor="middle" x="169" y="-65.62" font-family="Times New Roman,serif" font-size="10.00">test_locale_info</text>
</g>
<!-- TEST_APP_make -->
<g id="node22" class="node">
<title>TEST_APP_make</title>
<polygon fill="lightcoral" stroke="black" points="210.06,-478 156.06,-478 156.06,-442 210.06,-442 210.06,-478"/>
<text xml:space="preserve" text-anchor="middle" x="183.06" y="-456.12" font-family="Times New Roman,serif" font-size="10.00">make</text>
</g>
<!-- TEST_APP_tests -->
<g id="node23" class="node">
<title>TEST_APP_tests</title>
<polygon fill="lightgray" stroke="black" points="255.06,-533 201.06,-533 201.06,-497 255.06,-497 255.06,-533"/>
<text xml:space="preserve" text-anchor="middle" x="228.06" y="-511.12" font-family="Times New Roman,serif" font-size="10.00">tests</text>
</g>
<!-- TEST_APP_passed -->
<g id="node24" class="node">
<title>TEST_APP_passed</title>
<polygon fill="lightgray" stroke="black" points="320.06,-588 266.06,-588 266.06,-552 320.06,-552 320.06,-588"/>
<text xml:space="preserve" text-anchor="middle" x="293.06" y="-566.12" font-family="Times New Roman,serif" font-size="10.00">passed</text>
</g>
<!-- TEST_APP_failed -->
<g id="node25" class="node">
<title>TEST_APP_failed</title>
<polygon fill="lightgray" stroke="black" points="245.06,-593 191.06,-593 191.06,-557 245.06,-557 245.06,-593"/>
<text xml:space="preserve" text-anchor="middle" x="218.06" y="-571.12" font-family="Times New Roman,serif" font-size="10.00">failed</text>
</g>
<!-- TEST_APP_run_test -->
<g id="node26" class="node">
<title>TEST_APP_run_test</title>
<polygon fill="lightcoral" stroke="black" points="330.06,-508 276.06,-508 276.06,-472 330.06,-472 330.06,-508"/>
<text xml:space="preserve" text-anchor="middle" x="303.06" y="-486.13" font-family="Times New Roman,serif" font-size="10.00">run_test</text>
</g>
<!-- legend_full -->
<g id="node27" class="node">
<title>legend_full</title>
<polygon fill="palegreen" stroke="black" points="591.94,-468.63 477.69,-468.63 477.69,-427.63 591.94,-427.63 591.94,-468.63"/>
<text xml:space="preserve" text-anchor="middle" x="534.81" y="-451.33" font-family="Times New Roman,serif" font-size="14.00">Full Contract</text>
<text xml:space="preserve" text-anchor="middle" x="534.81" y="-434.83" font-family="Times New Roman,serif" font-size="14.00">(require + ensure)</text>
</g>
<!-- legend_partial -->
<g id="node28" class="node">
<title>legend_partial</title>
<polygon fill="khaki" stroke="black" points="602.44,-404.62 485.19,-404.62 485.19,-363.62 602.44,-363.62 602.44,-404.62"/>
<text xml:space="preserve" text-anchor="middle" x="543.81" y="-387.32" font-family="Times New Roman,serif" font-size="14.00">Partial Contract</text>
<text xml:space="preserve" text-anchor="middle" x="543.81" y="-370.82" font-family="Times New Roman,serif" font-size="14.00">(require or ensure)</text>
</g>
<!-- legend_none -->
<g id="node29" class="node">
<title>legend_none</title>
<polygon fill="lightcoral" stroke="black" points="584.19,-527.12 501.44,-527.12 501.44,-491.12 584.19,-491.12 584.19,-527.12"/>
<text xml:space="preserve" text-anchor="middle" x="542.81" y="-504.07" font-family="Times New Roman,serif" font-size="14.00">No Contract</text>
</g>
<!-- legend_attr -->
<g id="node30" class="node">
<title>legend_attr</title>
<polygon fill="lightgray" stroke="black" points="478.19,-532.62 413.44,-532.62 413.44,-491.62 478.19,-491.62 478.19,-532.62"/>
<text xml:space="preserve" text-anchor="middle" x="445.81" y="-515.33" font-family="Times New Roman,serif" font-size="14.00">Attribute</text>
<text xml:space="preserve" text-anchor="middle" x="445.81" y="-498.82" font-family="Times New Roman,serif" font-size="14.00">(n/a)</text>
</g>
<!-- legend_stats -->
<g id="node31" class="node">
<title>legend_stats</title>
<polygon fill="white" stroke="black" points="449.94,-470.62 389.69,-470.62 389.69,-363.62 455.94,-363.62 455.94,-464.62 449.94,-470.62"/>
<polyline fill="none" stroke="black" points="449.94,-470.62 449.94,-464.62"/>
<polyline fill="none" stroke="black" points="455.94,-464.62 449.94,-464.62"/>
<text xml:space="preserve" text-anchor="middle" x="422.81" y="-453.32" font-family="Times New Roman,serif" font-size="14.00">Statistics</text>
<text xml:space="preserve" text-anchor="middle" x="422.81" y="-436.82" font-family="Times New Roman,serif" font-size="14.00">Full: 0</text>
<text xml:space="preserve" text-anchor="middle" x="422.81" y="-420.32" font-family="Times New Roman,serif" font-size="14.00">Partial: 0</text>
<text xml:space="preserve" text-anchor="middle" x="422.81" y="-403.82" font-family="Times New Roman,serif" font-size="14.00">None: 23</text>
<text xml:space="preserve" text-anchor="middle" x="422.81" y="-387.32" font-family="Times New Roman,serif" font-size="14.00">Attr: 3</text>
<text xml:space="preserve" text-anchor="middle" x="422.81" y="-370.82" font-family="Times New Roman,serif" font-size="14.00">Total: 26</text>
</g>
</g>
</svg>
