<?xml version="1.0" encoding="UTF-8" standalone="no"?>
<!DOCTYPE svg PUBLIC "-//W3C//DTD SVG 1.1//EN"
 "http://www.w3.org/Graphics/SVG/1.1/DTD/svg11.dtd">
<!-- Generated by graphviz version 14.1.1 (20251213.1925)
 -->
<!-- Title: Dependencies Pages: 1 -->
<svg width="342pt" height="357pt"
 viewBox="0.00 0.00 342.00 357.00" xmlns="http://www.w3.org/2000/svg" xmlns:xlink="http://www.w3.org/1999/xlink">
<g id="graph0" class="graph" transform="scale(1 1) rotate(0) translate(4 352.5)">
<title>Dependencies</title>
<polygon fill="white" stroke="none" points="-4,4 -4,-352.5 338.25,-352.5 338.25,4 -4,4"/>
<text xml:space="preserve" text-anchor="middle" x="167.12" y="-7.2" font-family="Times New Roman,serif" font-size="14.00">simple_i18n &#45; Dependencies</text>
<!-- simple_i18n -->
<g id="node1" class="node">
<title>simple_i18n</title>
<polygon fill="lightblue" stroke="black" points="83.5,-204.5 0,-204.5 0,-168.5 83.5,-168.5 83.5,-204.5"/>
<text xml:space="preserve" text-anchor="middle" x="41.75" y="-181.45" font-family="Times New Roman,serif" font-size="14.00">simple_i18n</text>
</g>
<!-- simple_datetime -->
<g id="node2" class="node">
<title>simple_datetime</title>
<polygon fill="lightblue" stroke="black" points="334.25,-348.5 227.5,-348.5 227.5,-312.5 334.25,-312.5 334.25,-348.5"/>
<text xml:space="preserve" text-anchor="middle" x="280.88" y="-325.45" font-family="Times New Roman,serif" font-size="14.00">simple_datetime</text>
</g>
<!-- simple_i18n&#45;&gt;simple_datetime -->
<g id="edge1" class="edge">
<title>simple_i18n&#45;&gt;simple_datetime</title>
<path fill="none" stroke="black" stroke-dasharray="5,2" d="M41.25,-204.74C41.25,-243.49 41.25,-330.5 41.25,-330.5 41.25,-330.5 215.58,-330.5 215.58,-330.5"/>
<polygon fill="black" stroke="black" points="215.58,-334 225.58,-330.5 215.58,-327 215.58,-334"/>
</g>
<!-- simple_testing -->
<g id="node3" class="node">
<title>simple_testing</title>
<polygon fill="lightblue" stroke="black" points="328.62,-276.5 233.12,-276.5 233.12,-240.5 328.62,-240.5 328.62,-276.5"/>
<text xml:space="preserve" text-anchor="middle" x="280.88" y="-253.45" font-family="Times New Roman,serif" font-size="14.00">simple_testing</text>
</g>
<!-- simple_i18n&#45;&gt;simple_testing -->
<g id="edge2" class="edge">
<title>simple_i18n&#45;&gt;simple_testing</title>
<path fill="none" stroke="black" stroke-dasharray="5,2" d="M83.9,-195.5C141.64,-195.5 238.25,-195.5 238.25,-195.5 238.25,-195.5 238.25,-228.76 238.25,-228.76"/>
<polygon fill="black" stroke="black" points="234.75,-228.76 238.25,-238.76 241.75,-228.76 234.75,-228.76"/>
</g>
<!-- base -->
<g id="node4" class="node">
<title>base</title>
<polygon fill="lightgray" stroke="black" points="307.88,-204.5 253.88,-204.5 253.88,-168.5 307.88,-168.5 307.88,-204.5"/>
<text xml:space="preserve" text-anchor="middle" x="280.88" y="-181.45" font-family="Times New Roman,serif" font-size="14.00">base</text>
</g>
<!-- simple_i18n&#45;&gt;base -->
<g id="edge3" class="edge">
<title>simple_i18n&#45;&gt;base</title>
<path fill="none" stroke="black" stroke-dasharray="5,2" d="M83.95,-186.5C83.95,-186.5 242.09,-186.5 242.09,-186.5"/>
<polygon fill="black" stroke="black" points="242.09,-190 252.09,-186.5 242.09,-183 242.09,-190"/>
</g>
<!-- i18n -->
<g id="node5" class="node">
<title>i18n</title>
<polygon fill="lightgray" stroke="black" points="307.88,-132.5 253.88,-132.5 253.88,-96.5 307.88,-96.5 307.88,-132.5"/>
<text xml:space="preserve" text-anchor="middle" x="280.88" y="-109.45" font-family="Times New Roman,serif" font-size="14.00">i18n</text>
</g>
<!-- simple_i18n&#45;&gt;i18n -->
<g id="edge4" class="edge">
<title>simple_i18n&#45;&gt;i18n</title>
<path fill="none" stroke="black" stroke-dasharray="5,2" d="M41.25,-168.33C41.25,-147 41.25,-114.5 41.25,-114.5 41.25,-114.5 241.87,-114.5 241.87,-114.5"/>
<polygon fill="black" stroke="black" points="241.87,-118 251.87,-114.5 241.87,-111 241.87,-118"/>
</g>
<!-- ise_testing -->
<g id="node6" class="node">
<title>ise_testing</title>
<polygon fill="lightgray" stroke="black" points="317.75,-60.5 244,-60.5 244,-24.5 317.75,-24.5 317.75,-60.5"/>
<text xml:space="preserve" text-anchor="middle" x="280.88" y="-37.45" font-family="Times New Roman,serif" font-size="14.00">ise_testing</text>
</g>
<!-- simple_i18n&#45;&gt;ise_testing -->
<g id="edge5" class="edge">
<title>simple_i18n&#45;&gt;ise_testing</title>
<path fill="none" stroke="black" stroke-dasharray="5,2" d="M83.99,-177.5C144.66,-177.5 249.25,-177.5 249.25,-177.5 249.25,-177.5 249.25,-72.5 249.25,-72.5"/>
<polygon fill="black" stroke="black" points="252.75,-72.5 249.25,-62.5 245.75,-72.5 252.75,-72.5"/>
</g>
</g>
</svg>
